<?xml version="1.0" encoding="UTF-8"?>
<svg id="Layer_1" data-name="Layer 1" xmlns="http://www.w3.org/2000/svg" viewBox="0 0 1378.22 493.2">
  <path d="M444.58,396.89c-101.95,73.55-184.07,92.31-145.29-66.95,1.76-8.42,5.59-25.41,7.58-33.82.34-1.81.54-2.41-1.77-2.07-409.66,53.03-402.2,3.88-5.15-58.74,0,0,21.57-3.31,21.57-3.31,23.06-66.8,44.25-140.45,64.4-209.41l-.9-.96c-25.54,40.75-59.96,97.43-85.76,137.88-35.12,53.2-24.87-32.82-23.47-53.71,1.01-16.41,4.88-43.97.32-59.4-42.76,66.4-79.8,140.14-127.67,203.5l3.89,2.36-10.52,3.12c-.99-5.46,8.01-14.22,10.58-18.15,38.18-55.07,73.3-115.26,106.45-173.58,50.05-92.14,12.28,81.49,25.13,102.91,8.6-1.66,29.49-40.79,35.82-49.81,18.41-30.38,44.79-71.46,63.06-101.46,46.5-83.55-51.68,201.97-52.09,213.54,327.1-41.41,666.37-57.39,995.18-14.65-329.46-23.81-666.8-25.42-994.99,25.37-5.3.33-5.32,10.45-6.82,13.74-1.69,6.65-5.41,20.1-7.12,26.77.48,1.91.71,2.31,2.8,1.76,54.69-10.41,111.09-26.87,165.12-38.72,179.45-37.41,22.43,115.89-40.36,153.79ZM106.93,303.64c60.33-2.83,124.9-6.77,184.44-16.82,3.19-1.15,18.65-1.36,19.67-5.98,2.61-12.48,7.28-27.06,9.63-39.63-99.76,16.15-207.94,33.7-304.7,63.43-.12-.5.1.42.29,1.18,28.45.32,62.34-.81,90.68-2.19ZM352.03,437.59c46.15-13.58,228.03-131.86,207.68-182.28-46.26-27.25-166.92,26.78-223.38,32.76-24.47,5.84-21.28-2.2-26.3,20.63-8.51,43.68-42.08,156.91,42,128.89Z"/>
  <path d="M459.25,151.39c4.96-10.91,16.78-32.85,30.93-30.4,6.4,2.95-12.42,30.7-15.1,34.23-.11.94-7.74,8.77-6.54,9.91,33.21,1.05,70.62-85.99,69.39-64.83-7.68,12.43-32.92,92.64,2.5,53.9,5.15-3.81,42.61-58.8,43.82-39.25,0,0-3.94,12.35-3.94,12.35-10.34,32.37,1.35,37.85,2.43,35.26,7.84-19.76,18.8-33.49,32.42-49.44,5.21-7.03,18.57-9.62,19.19,1.95-10.66,66.14,45.26,32.25,56.51-3.11.2-1.3-2.43-3.83-2.41-4.91.04-2.2,2.72-6.12,4.66-7.9,3.96-3.64,5.28,8.65,12.17,8.05,10.63-.92,18.93-4.65,28.27-9.32,14.84-5.38-21.85,34.71-12.1,44.52,2.1,2.93,21.27,1.62,24.63-6.18,5.29-12.56,14.39-23.37,24.32-32.5,22.48-20.16,44.45-14.12,43.61-7.38-2.9,22.29-31.17,20.85-22.75,43.98,24.75,25.69,119.83-70.99,142.12-89.02-4.86,23.81-156.96,159.71-153.24,82.2l-.83-.26c-6.55,5.6-16.12,14.59-24.46,17.57-5.69,2.93-6.49-1.51-12,.41-42.42,16.49-36.62-11.93-19.8-38.6-5.09.76-11.1,4.06-16.49,4.46-9.33,1.54-9.59-1.95-11.24,1.22-8.8,24-60.67,75.28-71.29,27.53-27.94,43.75-74.17,41.51-52.08-18.43-15.94,14.8-27.2,40.26-47.07,49.55-19.57,2.68-9.84-33.12-6.81-43.58-10.78,13.68-18.26,24.37-32.22,34.96-18.58,14.98-24.64,4.11-28.49,7.08-15.27,14.05-36.13,15.3-31.57-11.53.31-.02-.56.03-.92.05-10.26,18.4-43.64,45.08-28.33,3.43,5.75-12.54,23.11-44.07,39.5-37.32,8.11,13.85-5.08,23.34-3.16,37.25,1.49,10.58,12.83,4.82,19.08,1.53,4.98-2.5,3.53-8.53,7.31-17.43ZM765.96,129.07c18.36-9.89,19.44-10.69,30.11-28.64-18.75.81-32.16,14.93-40.78,31.37.25.71,1.88,1.96,2.4,1.82l8.27-4.55ZM804.44,103.72c-1.16-6.21-4.28,2.16-5.13,3.83l5.13-3.83ZM619.25,134.68l6.84-10.68c-1.92-25.21-37.69,31.62-36.36,38.86,8.93.46,25.36-21.71,29.51-28.19ZM482.99,130.91c-9.27,5.26-17.72,14.5-18.76,25.53-.41,4.33,22.74-26.17,18.76-25.53ZM414.86,168.2c4.48-6.56,18.45-22.77,18.03-29.94-12.41-15.25-58.71,71.03-18.03,29.94Z"/>
</svg>